<?xml version="1.0" encoding="iso-8859-1"?>
<!-- Generator: Adobe Illustrator 19.0.0, SVG Export Plug-In . SVG Version: 6.00 Build 0)  -->
<svg xmlns="http://www.w3.org/2000/svg" xmlns:xlink="http://www.w3.org/1999/xlink" version="1.1" id="Capa_1" x="0px" y="0px" viewBox="0 0 384 384" style="enable-background:new 0 0 384 384;" xml:space="preserve" width="512px" height="512px">
<g>
	<g>
		<path d="M375.2,93.2h-164l-36.4-62.4c-1.6-2.8-4.4-4.4-7.6-4.4H46c-26.8,0-46,34.8-46,58.4v226.8c0,25.6,20.8,46,46,46h292    c25.6,0,46-20.8,46-46V102C384,97.2,380,93.2,375.2,93.2z M17.6,84.8C17.6,68,32,44,46,44h116l28.4,48.8H17.6V84.8z M366.4,311.6    c0,15.6-12.8,28.4-28.4,28.4H46c-15.6,0-28.4-12.8-28.4-28.4V110.8H206h160.4V311.6z" fill="#666666"/>
	</g>
</g>
<g>
	<g>
		<path d="M192,270H70c-4.8,0-8.8,4-8.8,8.8s4,8.8,8.8,8.8h122c4.8,0,8.8-4,8.8-8.8S196.8,270,192,270z" fill="#666666"/>
	</g>
</g>
<g>
</g>
<g>
</g>
<g>
</g>
<g>
</g>
<g>
</g>
<g>
</g>
<g>
</g>
<g>
</g>
<g>
</g>
<g>
</g>
<g>
</g>
<g>
</g>
<g>
</g>
<g>
</g>
<g>
</g>
</svg>
